ffmpeg version 4.2.7-0ubuntu0.1 Copyright (c) 2000-2022 the FFmpeg developers
  built with gcc 9 (Ubuntu 9.4.0-1ubuntu1~20.04.1)
  configuration: --prefix=/usr --extra-version=0ubuntu0.1 --toolchain=hardened --libdir=/usr/lib/x86_64-linux-gnu --incdir=/usr/include/x86_64-linux-gnu --arch=amd64 --enable-gpl --disable-stripping --enable-avresample --disable-filter=resample --enable-avisynth --enable-gnutls --enable-ladspa --enable-libaom --enable-libass --enable-libbluray --enable-libbs2b --enable-libcaca --enable-libcdio --enable-libcodec2 --enable-libflite --enable-libfontconfig --enable-libfreetype --enable-libfribidi --enable-libgme --enable-libgsm --enable-libjack --enable-libmp3lame --enable-libmysofa --enable-libopenjpeg --enable-libopenmpt --enable-libopus --enable-libpulse --enable-librsvg --enable-librubberband --enable-libshine --enable-libsnappy --enable-libsoxr --enable-libspeex --enable-libssh --enable-libtheora --enable-libtwolame --enable-libvidstab --enable-libvorbis --enable-libvpx --enable-libwavpack --enable-libwebp --enable-libx265 --enable-libxml2 --enable-libxvid --enable-libzmq --enable-libzvbi --enable-lv2 --enable-omx --enable-openal --enable-opencl --enable-opengl --enable-sdl2 --enable-libdc1394 --enable-libdrm --enable-libiec61883 --enable-nvenc --enable-chromaprint --enable-frei0r --enable-libx264 --enable-shared
  libavutil      56. 31.100 / 56. 31.100
  libavcodec     58. 54.100 / 58. 54.100
  libavformat    58. 29.100 / 58. 29.100
  libavdevice    58.  8.100 / 58.  8.100
  libavfilter     7. 57.100 /  7. 57.100
  libavresample   4.  0.  0 /  4.  0.  0
  libswscale      5.  5.100 /  5.  5.100
  libswresample   3.  5.100 /  3.  5.100
  libpostproc    55.  5.100 / 55.  5.100
[rawvideo @ 0x5578a7cd4780] Estimating duration from bitrate, this may be inaccurate
Input #0, rawvideo, from 'output.yuv':
  Duration: 00:00:04.80, start: 0.000000, bitrate: 2488320 kb/s
    Stream #0:0: Video: rawvideo (I420 / 0x30323449), yuv420p, 3840x2160, 2488320 kb/s, 25 tbr, 25 tbn, 25 tbc
Stream mapping:
  Stream #0:0 -> #0:0 (rawvideo (native) -> h264 (libx264))
Press [q] to stop, [?] for help
[libx264 @ 0x5578a7cd9d80] using cpu capabilities: MMX2 SSE2Fast SSSE3 SSE4.2 AVX
[libx264 @ 0x5578a7cd9d80] profile High, level 5.1
Output #0, h264, to 'output_h264.264':
  Metadata:
    encoder         : Lavf58.29.100
    Stream #0:0: Video: h264 (libx264), yuv420p, 3840x2160, q=-1--1, 30 fps, 30 tbn, 30 tbc
    Metadata:
      encoder         : Lavc58.54.100 libx264
    Side data:
      cpb: bitrate max/min/avg: 0/0/0 buffer size: 0 vbv_delay: -1
frame=   21 fps=0.0 q=0.0 size=       0kB time=00:00:00.00 bitrate=N/A speed=   0x    frame=   43 fps= 42 q=0.0 size=       0kB time=00:00:00.00 bitrate=N/A speed=   0x    frame=   47 fps=9.7 q=0.0 size=       0kB time=00:00:00.00 bitrate=N/A speed=   0x    frame=   48 fps=5.8 q=0.0 size=       0kB time=00:00:00.00 bitrate=N/A speed=   0x    frame=   56 fps=6.2 q=0.0 size=       0kB time=00:00:00.00 bitrate=N/A speed=   0x    frame=   61 fps=6.1 q=29.0 size=     216kB time=00:00:00.10 bitrate=17723.2kbits/s speed=0.01x    frame=   63 fps=3.4 q=29.0 size=     256kB time=00:00:00.16 bitrate=12582.9kbits/s speed=0.00906x    frame=   68 fps=3.6 q=29.0 size=     256kB time=00:00:00.33 bitrate=6291.5kbits/s speed=0.0176x    frame=   72 fps=3.7 q=29.0 size=     512kB time=00:00:00.46 bitrate=8987.8kbits/s speed=0.0238x    frame=   73 fps=2.7 q=29.0 size=     512kB time=00:00:00.50 bitrate=8388.6kbits/s speed=0.0183x    frame=   80 fps=2.9 q=29.0 size=     512kB time=00:00:00.73 bitrate=5719.5kbits/s speed=0.0261x    frame=   84 fps=2.9 q=29.0 size=     768kB time=00:00:00.86 bitrate=7259.4kbits/s speed=0.0301x    frame=   86 fps=2.9 q=29.0 size=     768kB time=00:00:00.93 bitrate=6740.8kbits/s speed=0.0318x    frame=   92 fps=3.1 q=29.0 size=    1024kB time=00:00:01.13 bitrate=7401.7kbits/s speed=0.0377x    frame=   96 fps=3.1 q=29.0 size=    1024kB time=00:00:01.26 bitrate=6622.6kbits/s speed=0.0412x    frame=  101 fps=3.2 q=29.0 size=    1280kB time=00:00:01.43 bitrate=7315.6kbits/s speed=0.0459x    frame=  106 fps=3.3 q=29.0 size=    1280kB time=00:00:01.60 bitrate=6553.6kbits/s speed=0.0502x    frame=  110 fps=3.4 q=29.0 size=    1536kB time=00:00:01.73 bitrate=7259.4kbits/s speed=0.0535x    frame=  112 fps=3.4 q=29.0 size=    1536kB time=00:00:01.80 bitrate=6990.5kbits/s speed=0.0547x    frame=  115 fps=3.4 q=29.0 size=    1536kB time=00:00:01.90 bitrate=6622.6kbits/s speed=0.0566x    frame=  116 fps=3.4 q=29.0 size=    1536kB time=00:00:01.93 bitrate=6508.4kbits/s speed=0.0566x    frame=  120 fps=3.4 q=29.0 size=    1792kB time=00:00:02.06 bitrate=7103.3kbits/s speed=0.0594x    frame=  120 fps=2.4 q=-1.0 Lsize=    3463kB time=00:00:03.93 bitrate=7213.2kbits/s speed=0.0795x    
video:3463kB audio:0kB subtitle:0kB other streams:0kB global headers:0kB muxing overhead: 0.000000%
[libx264 @ 0x5578a7cd9d80] frame I:2     Avg QP:21.34  size:113488
[libx264 @ 0x5578a7cd9d80] frame P:30    Avg QP:22.64  size: 47375
[libx264 @ 0x5578a7cd9d80] frame B:88    Avg QP:22.88  size: 21571
[libx264 @ 0x5578a7cd9d80] consecutive B-frames:  1.7%  0.0%  5.0% 93.3%
[libx264 @ 0x5578a7cd9d80] mb I  I16..4: 26.1% 69.8%  4.1%
[libx264 @ 0x5578a7cd9d80] mb P  I16..4:  6.0%  4.6%  0.1%  P16..4: 44.7%  3.1%  7.0%  0.0%  0.0%    skip:34.5%
[libx264 @ 0x5578a7cd9d80] mb B  I16..4:  0.6%  0.5%  0.0%  B16..8: 31.1%  0.3%  0.0%  direct: 2.5%  skip:64.8%  L0:41.3% L1:56.8% BI: 2.0%
[libx264 @ 0x5578a7cd9d80] 8x8 transform intra:52.1% inter:97.4%
[libx264 @ 0x5578a7cd9d80] coded y,uvDC,uvAC intra: 18.1% 38.3% 7.4% inter: 7.8% 17.0% 1.1%
[libx264 @ 0x5578a7cd9d80] i16 v,h,dc,p: 34% 41%  9% 16%
[libx264 @ 0x5578a7cd9d80] i8 v,h,dc,ddl,ddr,vr,hd,vl,hu: 23% 24% 35%  2%  4%  2%  6%  1%  3%
[libx264 @ 0x5578a7cd9d80] i4 v,h,dc,ddl,ddr,vr,hd,vl,hu: 26% 35% 13%  3%  5%  3% 10%  2%  3%
[libx264 @ 0x5578a7cd9d80] i8c dc,h,v,p: 68% 20% 10%  2%
[libx264 @ 0x5578a7cd9d80] Weighted P-Frames: Y:16.7% UV:16.7%
[libx264 @ 0x5578a7cd9d80] ref P L0: 31.5% 15.1% 33.4% 16.2%  3.8%
[libx264 @ 0x5578a7cd9d80] ref B L0: 68.0% 17.6% 14.3%
[libx264 @ 0x5578a7cd9d80] ref B L1: 89.6% 10.4%
[libx264 @ 0x5578a7cd9d80] kb/s:7093.02
